<svg xmlns="http://www.w3.org/2000/svg" xmlns:xlink="http://www.w3.org/1999/xlink" width="50" height="50" viewBox="0 0 50 50">
  <defs>
    <style>
      .cls-1 {
        fill: none;
      }

      .cls-2 {
        clip-path: url(#clip-path);
      }

      .cls-3 {
        fill: #290000;
      }
    </style>
    <clipPath id="clip-path">
      <rect id="Rectangle_158" data-name="Rectangle 158" class="cls-1" width="50" height="50" transform="translate(31 359)"/>
    </clipPath>
  </defs>
  <g id="Deleted_files_icon" data-name="Deleted files icon" class="cls-2" transform="translate(-31 -359)">
    <g id="Trash" transform="translate(24.5 357.5)">
      <g id="Group_8" data-name="Group 8" transform="translate(11.5 2.5)">
        <path id="Path_8" data-name="Path 8" class="cls-3" d="M12.968,13.951H49.8a1.428,1.428,0,0,0,.774-2.631c-2.992-1.908-7.427-2.992-12.585-3.456a6.8,6.8,0,0,0-6.6-5.364,6.7,6.7,0,0,0-6.551,5.364c-5.209.464-9.645,1.6-12.585,3.456A1.412,1.412,0,0,0,12.968,13.951ZM31.381,5.285A3.938,3.938,0,0,1,34.94,7.606c-1.186-.052-2.373-.1-3.559-.1s-2.424.052-3.559.1A3.938,3.938,0,0,1,31.381,5.285Z" transform="translate(-11.523 -2.5)"/>
        <path id="Path_9" data-name="Path 9" class="cls-3" d="M49.1,28.9H13.615a2.115,2.115,0,1,0,0,4.229h1.238l3.456,27.492a4.184,4.184,0,0,0,4.178,3.662H40.281a4.227,4.227,0,0,0,4.178-3.662l3.4-27.543H49.1a2.092,2.092,0,0,0,2.115-2.115A2.049,2.049,0,0,0,49.1,28.9ZM24.756,58.094h-.1a1.239,1.239,0,0,1-1.238-1.135L21.867,38.184a1.242,1.242,0,1,1,2.476-.206l1.547,18.775A1.192,1.192,0,0,1,24.756,58.094Zm7.84-1.238a1.222,1.222,0,0,1-1.238,1.238,1.255,1.255,0,0,1-1.238-1.238V38.081a1.222,1.222,0,0,1,1.238-1.238A1.255,1.255,0,0,1,32.6,38.081Zm6.705.1a1.235,1.235,0,0,1-1.238,1.135h-.1a1.26,1.26,0,0,1-1.135-1.341l1.547-18.775a1.242,1.242,0,1,1,2.476.206Z" transform="translate(-11.5 -15.283)"/>
      </g>
    </g>
  </g>
</svg>
