<svg xmlns="http://www.w3.org/2000/svg" width="70" height="57.826" viewBox="0 0 70 57.826">
  <defs>
    <style>
      .cls-1 {
        fill: #fcf6e7;
      }

      .cls-2 {
        fill: #290000;
        fill-rule: evenodd;
      }
    </style>
  </defs>
  <g id="Folder_icon" data-name="Folder icon" transform="translate(-325 -104)">
    <path id="Path_12" data-name="Path 12" class="cls-1" d="M329.24,111.774H293.6l-2.415-5.4H270.859l-1.99,4.139v8.8H261.95l.985,36.629,3.387,4.721h57.337l5.582-2.85Z" transform="translate(64 0)"/>
    <path id="Folder" class="cls-2" d="M63.391,62.826H8.609A7.608,7.608,0,0,1,1,55.217v-35A1.521,1.521,0,0,1,2.522,18.7H7.087V11.087A6.087,6.087,0,0,1,13.174,5H28.391a6.087,6.087,0,0,1,6.087,6.087v1.522h35A1.521,1.521,0,0,1,71,14.13V55.217A7.608,7.608,0,0,1,63.391,62.826ZM4.043,21.739V55.217h0a4.566,4.566,0,0,0,4.565,4.565H57.338a7.551,7.551,0,0,1-1.555-4.565V21.739Zm63.913-6.087H31.435V11.087a3.045,3.045,0,0,0-3.043-3.043H13.174a3.045,3.045,0,0,0-3.043,3.043V18.7H57.3a1.527,1.527,0,0,1,1.522,1.522h0v35a4.565,4.565,0,1,0,9.13,0Z" transform="translate(324 99)"/>
  </g>
</svg>
