<svg xmlns="http://www.w3.org/2000/svg" xmlns:xlink="http://www.w3.org/1999/xlink" width="55" height="53" viewBox="0 0 55 53">
  <defs>
    <style>
      .cls-1, .cls-2, .cls-6 {
        fill: none;
      }

      .cls-2 {
        stroke: #290000;
        stroke-width: 2px;
      }

      .cls-3 {
        clip-path: url(#clip-path);
      }

      .cls-4, .cls-8 {
        fill: #290000;
      }

      .cls-5 {
        clip-path: url(#clip-path-2);
      }

      .cls-6 {
        stroke-linecap: round;
      }

      .cls-7, .cls-8 {
        stroke: none;
      }
    </style>
    <clipPath id="clip-path">
      <rect id="Rectangle_160" data-name="Rectangle 160" class="cls-1" width="50" height="50" transform="translate(31 126)"/>
    </clipPath>
    <clipPath id="clip-path-2">
      <rect id="Rectangle_168" data-name="Rectangle 168" class="cls-2" width="50" height="50" transform="translate(31 126)"/>
    </clipPath>
  </defs>
  <g id="My_drive_icon" data-name="My drive icon" transform="translate(-31 -123)">
    <g id="My_drive" data-name="My drive" class="cls-3">
      <path id="Union_2" data-name="Union 2" class="cls-4" d="M79.865,26.89A9.722,9.722,0,1,1,73.607,9.631,8.7,8.7,0,0,1,73.546,8.6a8.6,8.6,0,0,1,15.478-5.16A8.6,8.6,0,0,1,104.5,8.6a8.673,8.673,0,0,1-.074,1.131,9.723,9.723,0,1,1-8.147,16.617,9.725,9.725,0,0,1-16.418.543Z" transform="translate(-32 135)"/>
    </g>
    <g id="My_drive-2" data-name="My drive" class="cls-5" transform="translate(5 -3)">
      <g id="Union_3" data-name="Union 3" class="cls-6" transform="translate(-32 135)">
        <path class="cls-7" d="M79.865,26.89A9.722,9.722,0,1,1,73.607,9.631,8.7,8.7,0,0,1,73.546,8.6a8.6,8.6,0,0,1,15.478-5.16A8.6,8.6,0,0,1,104.5,8.6a8.673,8.673,0,0,1-.074,1.131,9.723,9.723,0,1,1-8.147,16.617,9.725,9.725,0,0,1-16.418.543Z"/>
        <path class="cls-8" d="M 87.90114593505859 29.13928031921387 C 89.27024078369141 29.13928031921387 90.61436462402344 28.77695083618164 91.78816986083984 28.09147071838379 C 92.92979431152344 27.42478942871094 93.88812255859375 26.47035980224609 94.5595703125 25.33135986328125 L 95.84759521484375 23.14641952514648 L 97.67192077636719 24.90846061706543 C 99.11862182617188 26.30577087402344 101.023551940918 27.0753002166748 103.0357894897461 27.0753002166748 C 107.2938613891602 27.0753002166748 110.7580642700195 23.61109924316406 110.7580642700195 19.3530101776123 C 110.7580642700195 17.48390007019043 110.0817794799805 15.68049049377441 108.8537902832031 14.27500057220459 C 107.6365661621094 12.88181972503662 105.9644088745117 11.97074031829834 104.1453704833984 11.7096004486084 L 102.1890258789062 11.42875003814697 L 102.4466323852539 9.469210624694824 C 102.4842758178711 9.182940483093262 102.5033493041992 8.890069961547852 102.5033493041992 8.598730087280273 C 102.5033493041992 4.960180282592773 99.54265594482422 2.000000238418579 95.90345001220703 2.000000238418579 C 93.80828094482422 2.000000238418579 91.88370513916016 2.962370157241821 90.62318420410156 4.640350341796875 L 89.02412414550781 6.769000053405762 L 87.42504119873047 4.640350341796875 C 86.16452026367188 2.962370157241821 84.23994445800781 2.000000238418579 82.14478302001953 2.000000238418579 C 78.50624084472656 2.000000238418579 75.54607391357422 4.960180282592773 75.54607391357422 8.598730087280273 C 75.54607391357422 8.86439037322998 75.56195068359375 9.131939888000488 75.59328460693359 9.393939971923828 L 75.85773468017578 11.6054801940918 L 73.63059234619141 11.63127040863037 C 71.58763122558594 11.65492057800293 69.67039489746094 12.46875 68.2320556640625 13.92282009124756 C 66.79263305664062 15.37798976898193 65.99990081787109 17.30647087097168 65.99990081787109 19.3530101776123 C 65.99990081787109 23.61109924316406 69.46410369873047 27.0753002166748 73.72219085693359 27.0753002166748 C 75.5220947265625 27.0753002166748 77.2088623046875 26.47524070739746 78.60014343261719 25.33998107910156 L 80.28844451904297 23.96235084533691 L 81.51662445068359 25.76230049133301 C 82.95948028564453 27.87685966491699 85.34621429443359 29.13928031921387 87.90114593505859 29.13928031921387 M 87.90114593505859 31.13928031921387 C 84.5616455078125 31.13928031921387 81.61501312255859 29.45490074157715 79.86457061767578 26.88956069946289 C 78.19005584716797 28.25593948364258 76.05175018310547 29.0753002166748 73.72219085693359 29.0753002166748 C 68.35326385498047 29.0753002166748 63.99990081787109 24.72311019897461 63.99990081787109 19.3530101776123 C 63.99990081787109 14.02243041992188 68.29143524169922 9.692959785461426 73.60742950439453 9.631400108337402 C 73.56696319580078 9.292950630187988 73.54607391357422 8.948090553283691 73.54607391357422 8.598730087280273 C 73.54607391357422 3.849700212478638 77.39577484130859 1.596069267861822e-07 82.14478302001953 1.596069267861822e-07 C 84.95786285400391 1.596069267861822e-07 87.45534515380859 1.350800156593323 89.02410888671875 3.439110040664673 C 90.59287261962891 1.350800156593323 93.09040069580078 1.596069267861822e-07 95.90345001220703 1.596069267861822e-07 C 100.652473449707 1.596069267861822e-07 104.5033493041992 3.849700212478638 104.5033493041992 8.598730087280273 C 104.5033493041992 8.98231029510498 104.4782562255859 9.359620094299316 104.429573059082 9.729900360107422 C 109.1391525268555 10.4060001373291 112.7580642700195 14.45728015899658 112.7580642700195 19.3530101776123 C 112.7580642700195 24.72311019897461 108.405891418457 29.0753002166748 103.0357894897461 29.0753002166748 C 100.4122695922852 29.0753002166748 98.03156280517578 28.03638076782227 96.28248596191406 26.34702110290527 C 94.59194946289062 29.21474075317383 91.47148895263672 31.13928031921387 87.90114593505859 31.13928031921387 Z"/>
      </g>
    </g>
  </g>
</svg>
