<svg xmlns="http://www.w3.org/2000/svg" xmlns:xlink="http://www.w3.org/1999/xlink" width="50" height="50" viewBox="0 0 50 50">
  <defs>
    <style>
      .cls-1 {
        fill: none;
      }

      .cls-2 {
        clip-path: url(#clip-path);
      }

      .cls-3 {
        fill: #290000;
      }
    </style>
    <clipPath id="clip-path">
      <rect id="Rectangle_159" data-name="Rectangle 159" class="cls-1" width="50" height="50" transform="translate(31 251)"/>
    </clipPath>
  </defs>
  <g id="Sharing_icon" data-name="Sharing icon" class="cls-2" transform="translate(-31 -251)">
    <g id="Share" transform="translate(30.595 246.028)">
      <g id="Group_9" data-name="Group 9" transform="translate(0.405 8.972)">
        <path id="Path_10" data-name="Path 10" class="cls-3" d="M41.039,46.957a8.857,8.857,0,0,0,3.815-7.3,8.929,8.929,0,1,0-17.859,0,8.856,8.856,0,0,0,3.815,7.3,14.435,14.435,0,0,0-5.405,3.611A14.438,14.438,0,0,0,20,46.957a8.853,8.853,0,0,0,3.815-7.3,8.929,8.929,0,1,0-17.859,0,8.857,8.857,0,0,0,3.815,7.3A14.532,14.532,0,0,0,.4,60.517a.6.6,0,0,0,.6.6H19.05a.6.6,0,1,0,0-1.2H1.621A13.321,13.321,0,0,1,11.382,47.7a.6.6,0,0,0,.107-1.119,7.727,7.727,0,1,1,6.793,0A.6.6,0,0,0,18.39,47.7a13.234,13.234,0,0,1,6.225,3.789,14.483,14.483,0,0,0-3.171,9.032.6.6,0,0,0,.6.6H49.8a.6.6,0,0,0,.6-.6A14.531,14.531,0,0,0,41.039,46.957Z" transform="translate(-0.405 -19.754)"/>
        <path id="Path_11" data-name="Path 11" class="cls-3" d="M43.446,12.514a1.547,1.547,0,0,0,.246.179.873.873,0,0,0,.429.09h2.926l-.481.532a.855.855,0,0,0-.262.554.824.824,0,0,0,.133.46,1.472,1.472,0,0,0,.337.337.751.751,0,0,0,1.01-.14l.465-.454q.638-.622,1.246-1.253l.194-.2a.945.945,0,0,0,.366-.7,1.268,1.268,0,0,0-.366-.753l-.187-.2q-.61-.636-1.254-1.262l-.5-.483a.719.719,0,0,0-.485-.247h-.057a.824.824,0,0,0-.291.045.9.9,0,0,0-.222.135,1.446,1.446,0,0,0-.213.214.819.819,0,0,0-.133.224.9.9,0,0,0,0,.561.973.973,0,0,0,.156.245,2.98,2.98,0,0,0,.289.309l.3.285h-2.97a.865.865,0,0,0-.429.09,1.571,1.571,0,0,0-.246.179,1.565,1.565,0,0,0-.178.246.853.853,0,0,0,0,.762A1.54,1.54,0,0,0,43.446,12.514Z" transform="translate(-21.616 -8.972)"/>
      </g>
    </g>
  </g>
</svg>
